<svg xmlns="http://www.w3.org/2000/svg" viewBox="0 0 800 600">
  <rect width="800" height="600" fill="#553F83"/>
  <g transform="rotate(-3 400 300)">
    <rect x="240" y="110" width="320" height="380" rx="10" fill="#FFFFFF"/>
    <rect x="266" y="136" width="268" height="328" fill="none" stroke="#C9C2D7" stroke-width="3"/>
    <path d="M370 196h60v14a30 30 0 0 1-60 0Z" fill="#553F83"/>
    <rect x="397" y="240" width="6" height="30" fill="#553F83"/>
    <rect x="380" y="270" width="40" height="8" rx="4" fill="#553F83"/>
    <rect x="320" y="312" width="160" height="6" rx="3" fill="#C9C2D7"/>
    <circle cx="345" cy="362" r="14" fill="#C9C2D7"/>
    <circle cx="400" cy="362" r="14" fill="#D97706"/>
    <circle cx="455" cy="362" r="14" fill="#C9C2D7"/>
    <rect x="320" y="402" width="160" height="6" rx="3" fill="#DAD5E4"/>
  </g>
  <path d="M130 430h44v10a22 22 0 0 1-44 0Z" fill="#C9C2D7"/>
  <rect x="149" y="470" width="6" height="22" fill="#C9C2D7"/>
  <rect x="136" y="492" width="32" height="6" rx="3" fill="#C9C2D7"/>
  <path d="M626 430h44v10a22 22 0 0 1-44 0Z" fill="#A295BB"/>
  <rect x="645" y="470" width="6" height="22" fill="#A295BB"/>
  <rect x="632" y="492" width="32" height="6" rx="3" fill="#A295BB"/>
  <circle cx="660" cy="150" r="24" fill="#D97706"/>
  <circle cx="150" cy="120" r="16" fill="#A295BB"/>
</svg>
